<svg width="1392" height="98" viewBox="0 0 1392 98" fill="none" xmlns="http://www.w3.org/2000/svg">
<g filter="url(#filter0_d_33_121)">
<rect x="13" y="13" width="23.8958" height="23.8958" fill="#ECFF10"/>
<rect x="36.8958" y="36.8959" width="23.8958" height="23.8958" fill="#ECFF10"/>
<rect x="60.7917" y="60.7916" width="23.8958" height="23.8958" fill="#ECFF10"/>
<rect x="443.125" y="13" width="23.8958" height="23.8958" fill="#ECFF10"/>
<rect x="467.021" y="36.8959" width="23.8958" height="23.8958" fill="#ECFF10"/>
<rect x="490.917" y="60.7916" width="23.8958" height="23.8958" fill="#ECFF10"/>
<rect x="228.062" y="13" width="23.8958" height="23.8958" fill="#ECFF10"/>
<rect x="251.958" y="36.8959" width="23.8958" height="23.8958" fill="#ECFF10"/>
<rect x="275.854" y="60.7916" width="23.8958" height="23.8958" fill="#ECFF10"/>
<rect x="658.188" y="13" width="23.8958" height="23.8958" fill="#ECFF10"/>
<rect x="682.083" y="36.8959" width="23.8958" height="23.8958" fill="#ECFF10"/>
<rect x="705.979" y="60.7916" width="23.8958" height="23.8958" fill="#ECFF10"/>
<rect x="944.938" y="13" width="23.8958" height="23.8958" fill="#ECFF10"/>
<rect x="968.833" y="36.8959" width="23.8958" height="23.8958" fill="#ECFF10"/>
<rect x="992.729" y="60.7916" width="23.8958" height="23.8958" fill="#ECFF10"/>
<rect x="84.6875" y="13" width="23.8958" height="23.8958" fill="#ECFF10"/>
<rect x="108.583" y="36.8959" width="23.8958" height="23.8958" fill="#ECFF10"/>
<rect x="132.479" y="60.7916" width="23.8958" height="23.8958" fill="#ECFF10"/>
<rect x="514.812" y="13" width="23.8958" height="23.8958" fill="#ECFF10"/>
<rect x="538.708" y="36.8959" width="23.8958" height="23.8958" fill="#ECFF10"/>
<rect x="562.604" y="60.7916" width="23.8958" height="23.8958" fill="#ECFF10"/>
<rect x="299.75" y="13" width="23.8958" height="23.8958" fill="#ECFF10"/>
<rect x="323.646" y="36.8959" width="23.8958" height="23.8958" fill="#ECFF10"/>
<rect x="347.542" y="60.7916" width="23.8958" height="23.8958" fill="#ECFF10"/>
<rect x="729.875" y="13" width="23.8958" height="23.8958" fill="#ECFF10"/>
<rect x="753.771" y="36.8959" width="23.8958" height="23.8958" fill="#ECFF10"/>
<rect x="777.667" y="60.7916" width="23.8958" height="23.8958" fill="#ECFF10"/>
<rect x="1016.62" y="13" width="23.8958" height="23.8958" fill="#ECFF10"/>
<rect x="1040.52" y="36.8959" width="23.8958" height="23.8958" fill="#ECFF10"/>
<rect x="1064.42" y="60.7916" width="23.8958" height="23.8958" fill="#ECFF10"/>
<rect x="156.375" y="13" width="23.8958" height="23.8958" fill="#ECFF10"/>
<rect x="180.271" y="36.8959" width="23.8958" height="23.8958" fill="#ECFF10"/>
<rect x="204.167" y="60.7916" width="23.8958" height="23.8958" fill="#ECFF10"/>
<rect x="586.5" y="13" width="23.8958" height="23.8958" fill="#ECFF10"/>
<rect x="610.396" y="36.8959" width="23.8958" height="23.8958" fill="#ECFF10"/>
<rect x="634.292" y="60.7916" width="23.8958" height="23.8958" fill="#ECFF10"/>
<rect x="873.25" y="13" width="23.8958" height="23.8958" fill="#ECFF10"/>
<rect x="897.146" y="36.8959" width="23.8958" height="23.8958" fill="#ECFF10"/>
<rect x="921.042" y="60.7916" width="23.8958" height="23.8958" fill="#ECFF10"/>
<rect x="371.438" y="13" width="23.8958" height="23.8958" fill="#ECFF10"/>
<rect x="395.333" y="36.8959" width="23.8958" height="23.8958" fill="#ECFF10"/>
<rect x="419.229" y="60.7916" width="23.8958" height="23.8958" fill="#ECFF10"/>
<rect x="801.562" y="13" width="23.8958" height="23.8958" fill="#ECFF10"/>
<rect x="825.458" y="36.8959" width="23.8958" height="23.8958" fill="#ECFF10"/>
<rect x="849.354" y="60.7916" width="23.8958" height="23.8958" fill="#ECFF10"/>
<rect x="1088.31" y="13" width="23.8958" height="23.8958" fill="#ECFF10"/>
<rect x="1112.21" y="36.8959" width="23.8958" height="23.8958" fill="#ECFF10"/>
<rect x="1136.1" y="60.7916" width="23.8958" height="23.8958" fill="#ECFF10"/>
<rect x="1163" y="13" width="23.8958" height="23.8958" fill="#ECFF10"/>
<rect x="1186.9" y="36.8959" width="23.8958" height="23.8958" fill="#ECFF10"/>
<rect x="1210.79" y="60.7916" width="23.8958" height="23.8958" fill="#ECFF10"/>
<rect x="1235" y="13" width="23.8958" height="23.8958" fill="#ECFF10"/>
<rect x="1258.9" y="36.8959" width="23.8958" height="23.8958" fill="#ECFF10"/>
<rect x="1282.79" y="60.7916" width="23.8958" height="23.8958" fill="#ECFF10"/>
<rect x="1307" y="13" width="23.8958" height="23.8958" fill="#ECFF10"/>
<rect x="1330.9" y="36.8959" width="23.8958" height="23.8958" fill="#ECFF10"/>
<rect x="1354.79" y="60.7916" width="23.8958" height="23.8958" fill="#ECFF10"/>
</g>
<defs>
<filter id="filter0_d_33_121" x="0" y="0" width="1391.69" height="97.6875" filterUnits="userSpaceOnUse" color-interpolation-filters="sRGB">
<feFlood flood-opacity="0" result="BackgroundImageFix"/>
<feColorMatrix in="SourceAlpha" type="matrix" values="0 0 0 0 0 0 0 0 0 0 0 0 0 0 0 0 0 0 127 0" result="hardAlpha"/>
<feOffset/>
<feGaussianBlur stdDeviation="6.5"/>
<feComposite in2="hardAlpha" operator="out"/>
<feColorMatrix type="matrix" values="0 0 0 0 0.92549 0 0 0 0 1 0 0 0 0 0.0627451 0 0 0 0.5 0"/>
<feBlend mode="normal" in2="BackgroundImageFix" result="effect1_dropShadow_33_121"/>
<feBlend mode="normal" in="SourceGraphic" in2="effect1_dropShadow_33_121" result="shape"/>
</filter>
</defs>
</svg>
